<?xml version="1.0" encoding="UTF-8" standalone="no"?>
<svg
   xmlns:dc="http://purl.org/dc/elements/1.1/"
   xmlns:cc="http://creativecommons.org/ns#"
   xmlns:rdf="http://www.w3.org/1999/02/22-rdf-syntax-ns#"
   xmlns:svg="http://www.w3.org/2000/svg"
   xmlns="http://www.w3.org/2000/svg"
   xmlns:sodipodi="http://sodipodi.sourceforge.net/DTD/sodipodi-0.dtd"
   xmlns:inkscape="http://www.inkscape.org/namespaces/inkscape"
   version="1.1"
   viewBox="0 0 400 220"
   stroke-miterlimit="10"
   id="svg39"
   sodipodi:docname="Logo2.svg"
   width="400"
   height="220"
   style="fill:none;stroke:none;stroke-linecap:square;stroke-miterlimit:10"
   inkscape:version="0.92.3 (2405546, 2018-03-11)">
  <metadata
     id="metadata45">
    <rdf:RDF>
      <cc:Work
         rdf:about="">
        <dc:format>image/svg+xml</dc:format>
        <dc:type
           rdf:resource="http://purl.org/dc/dcmitype/StillImage" />
        <dc:title></dc:title>
      </cc:Work>
    </rdf:RDF>
  </metadata>
  <defs
     id="defs43">
    <clipPath
       clipPathUnits="userSpaceOnUse"
       id="clipPath883">
      <path
         style="fill:#cc0000;fill-opacity:1;fill-rule:evenodd"
         inkscape:connector-curvature="0"
         id="path885"
         d="m 242.8572,215.28684 c -1.24982,0.5 -18.99872,-2.2489 -35.49869,-8.49869 -16.5,-6.24978 -45.41775,-17.74978 -63.50131,-29 -18.08356,-11.25021 -44.9169,-27.25108 -45,-38.50131 -0.0831,-11.25021 35.66797,-20.83333 44.50131,-29 8.83331,-8.16666 10.99869,-13.166656 8.49869,-19.999996 -2.5,-6.83333 -8.33203,-12.5 -23.49869,-21 -15.16669,-8.5 -51.33465,-24.49999 -67.50131,-29.99999 -16.16669,-5.5 -23.7489,-4.66667 -29.49869,-3 -5.74978,1.66666 -2.91644,12.74978 -5,12.99999 -2.08355,0.25023 -6.75109,-7.33202 -7.50131,-11.49868 -0.75021,-4.16667 -1.16669,-11.00131 3,-13.50131 4.16666,-2.5 10.41644,-3.24891 22,-1.49869 11.58356,1.75021 30.33463,6.25021 47.50131,12 17.16666,5.74978 41.49869,14.83202 55.49869,22.49868 14,7.66667 25.08441,15.16798 28.50131,23.50131 3.41687,8.33335 -0.91644,18.33203 -8,26.498686 -7.08355,8.16667 -28.83465,15.66798 -34.50131,22.50131 -5.66669,6.83335 -4.91559,10.58225 0.50131,18.49869 5.41687,7.91646 18.41687,19.74979 32,29 13.5831,9.25021 36.58225,20.168 49.49869,26.50131 12.91644,6.33335 29.24976,10.99869 28,11.49869 z"
         mask="none" />
    </clipPath>
  </defs>
  <sodipodi:namedview
     pagecolor="#ffffff"
     bordercolor="#666666"
     borderopacity="1"
     objecttolerance="10"
     gridtolerance="10"
     guidetolerance="10"
     inkscape:pageopacity="0"
     inkscape:pageshadow="2"
     inkscape:window-width="1865"
     inkscape:window-height="1009"
     id="namedview41"
     showgrid="false"
     inkscape:pagecheckerboard="true"
     inkscape:zoom="1.4"
     inkscape:cx="272.83616"
     inkscape:cy="-15.714286"
     inkscape:window-x="665"
     inkscape:window-y="1217"
     inkscape:window-maximized="0"
     inkscape:current-layer="svg39" />
  <clipPath
     id="g7155fa1524_0_11.0">
    <path
       d="M 0,0 H 960 V 540 H 0 Z"
       id="path2"
       inkscape:connector-curvature="0"
       style="clip-rule:nonzero" />
  </clipPath>
  <path
     style="fill:#cc0000;fill-rule:evenodd;fill-opacity:1"
     inkscape:connector-curvature="0"
     id="path7"
     d="M 77.63144,-3.863891 41.83615,82.792274 1.43982,36.025874 33.40045,-14.249718 104.20886,-17.378327 212.54217,70.794894 308.85714,266.2857 72.63931,171.8815 66.74167,125.71353 90.97263,67.259464 81.69705,43.254214 97.0881,6.506184 Z"
     mask="none"
     clip-path="url(#clipPath883)" />
  <path
     style="fill:#000000;fill-opacity:0;fill-rule:evenodd"
     inkscape:connector-curvature="0"
     id="path9"
     d="m 293.68234,167.77376 h 106.07874 v 72.31496 H 293.68234 Z" />
  <path
     style="fill:#cc0000;fill-rule:nonzero"
     inkscape:connector-curvature="0"
     id="path11"
     d="m 347.45954,203.82438 q 0,0.40625 -0.1875,0.67188 -0.1875,0.26562 -0.45313,0.35937 -0.26562,0.0781 -0.48437,0.0781 -0.21875,0 -0.4375,0 h -13.375 q -0.20313,0 -0.42188,-0.0469 -0.21875,-0.0469 -0.39062,-0.28125 -0.15625,-0.23437 -0.15625,-0.42187 0,-0.1875 0,-0.35938 v -14.78125 q 0,-0.21875 0,-0.4375 0,-0.21875 0.15625,-0.45312 0.17187,-0.25 0.42187,-0.3125 0.26563,-0.0781 0.54688,-0.0781 h 13.07812 q 0.21875,0 0.45313,0 0.23437,0 0.5,0.0937 0.28125,0.0781 0.5,0.32813 0.21875,0.23437 0.21875,0.6875 0,0.40625 -0.21875,0.65625 -0.21875,0.23437 -0.5,0.32812 -0.26563,0.0781 -0.5,0.0781 -0.23438,0 -0.45313,0 h -11.78125 v 5.04687 h 11.71875 q 0.4375,0 0.89063,0.1875 0.45312,0.1875 0.45312,0.875 0,0.67188 -0.40625,0.90625 -0.40625,0.21875 -0.84375,0.21875 h -11.8125 v 5.60938 h 11.8125 q 0.21875,0 0.4375,0 0.23438,0 0.5,0.0781 0.28125,0.0625 0.5,0.3125 0.23438,0.25 0.23438,0.65625 z m 23.80139,-7.5 q 0,2.39063 -0.65625,4.0625 -0.65625,1.65625 -1.96875,2.6875 -1.29687,1.03125 -3.17187,1.45313 -1.875,0.40625 -4.26563,0.40625 h -9.85937 q -0.21875,0 -0.45313,-0.0156 -0.21875,-0.0156 -0.45312,-0.20312 -0.21875,-0.20313 -0.23438,-0.4375 -0.0156,-0.25 -0.0156,-0.45313 v -14.9219 q 0,-0.23438 0.0156,-0.5 0.0156,-0.26563 0.25,-0.4375 0.25,-0.17188 0.46875,-0.1875 0.21875,-0.0156 0.45313,-0.0156 h 9.82812 q 2.39063,0 4.26563,0.42188 1.875,0.42187 3.17187,1.45312 1.3125,1.03125 1.96875,2.6875 0.65625,1.65625 0.65625,4 z m -2.4375,0 q 0,-1.76562 -0.375,-2.95312 -0.375,-1.20313 -1.21875,-1.95313 -0.84375,-0.75 -2.3125,-1.10937 -1.46875,-0.375 -3.71875,-0.375 h -8.57812 v 12.84375 h 8.57812 q 2.25,0 3.71875,-0.375 1.46875,-0.375 2.3125,-1.125 0.84375,-0.75 1.21875,-1.95313 0.375,-1.21875 0.375,-3 z m 11.60382,-7.51562 q 0.25,-0.46875 0.48438,-0.75 0.23437,-0.29688 0.79687,-0.29688 0.45313,0 0.71875,0.28125 0.28125,0.26563 0.54688,0.76563 l 7.90625,14.26562 q 0.23437,0.42188 0.23437,0.84375 0,0.51563 -0.32812,0.84375 -0.3125,0.3125 -0.76563,0.3125 -0.39062,0 -0.71875,-0.21875 -0.32812,-0.23437 -0.59375,-0.71875 l -2.26562,-4.09375 h -9.48438 l -2.28125,4.14063 q -0.21875,0.4375 -0.57812,0.67187 -0.35938,0.21875 -0.73438,0.21875 -0.5625,0 -0.82812,-0.375 -0.25,-0.39062 -0.25,-0.85937 0,-0.23438 0.0781,-0.42188 0.0781,-0.1875 0.17188,-0.35937 z m 4.92188,9.15625 -3.64063,-6.67188 -3.65625,6.67188 z" />
  <path
     style="fill:#000000;fill-opacity:0;fill-rule:evenodd"
     inkscape:connector-curvature="0"
     id="path13"
     d="M 113.49904,103.71878 H 403.32582 V 213.64004 H 113.49904 Z" />
  <path
     style="fill:#666666;fill-rule:nonzero"
     inkscape:connector-curvature="0"
     id="path15"
     d="m 181.2477,151.44004 q -2.76563,0 -4.8125,0.45312 -2.04688,0.45313 -3.39063,1.39063 -1.32812,0.9375 -2.0625,2.42187 -0.73437,1.46875 -0.78125,2.32813 h 20.84375 v -0.35938 q 0,-1.29687 -0.46875,-2.39062 -0.45312,-1.09375 -1.53125,-1.9375 -1.0625,-0.84375 -2.98437,-1.375 -1.90625,-0.53125 -4.8125,-0.53125 z m -1.625,18.53125 q 2.85937,0 4.96875,-0.35938 2.10937,-0.35937 3.59375,-0.84375 1.5,-0.5 2.4375,-1.01562 0.9375,-0.53125 1.59375,-0.96875 0.5625,-0.1875 0.84375,-0.1875 0.9375,0 1.59375,0.73437 0.67187,0.73438 0.67187,1.625 0,1.03125 -0.78125,1.57813 -0.29687,0.3125 -1.34375,0.98437 -1.04687,0.67188 -2.89062,1.32813 -1.84375,0.64062 -4.48438,1.14062 -2.64062,0.48438 -6.23437,0.48438 -3.85938,0 -6.64063,-1 -2.78125,-1 -4.59375,-2.84375 -1.8125,-1.84375 -2.60937,-4.375 -0.79688,-2.53125 -0.79688,-5.45313 0,-3.92187 1.29688,-6.60937 1.29687,-2.70313 3.5625,-4.32813 2.26562,-1.64062 5.20312,-2.28125 2.9375,-0.64062 6.23438,-0.64062 6.95312,0 10.625,2.82812 3.67187,2.8125 3.67187,8.09375 0,0.51563 -0.0781,1.125 -0.0625,0.59375 -0.20313,1.17188 -0.125,0.57812 -0.46875,1.375 -0.32812,0.78125 -1.32812,0.78125 h -9.20313 l -14.125,-0.28125 q 0.0312,1.3125 0.64063,3.07812 0.60937,1.75 1.73437,2.79688 1.125,1.04687 2.875,1.5625 1.76563,0.5 4.23438,0.5 z m 35.875,4.5 q -2.96875,0 -5.6875,-0.625 -2.71875,-0.625 -4.85937,-2.20313 -2.14063,-1.59375 -3.39063,-4.21875 -1.23437,-2.64062 -1.23437,-6.46875 0,-3.75 1.01562,-6.4375 1.03125,-2.70312 3.04688,-4.40625 2.01562,-1.70312 4.8125,-2.4375 2.8125,-0.73437 6.29687,-0.73437 3.42188,0 5.90625,0.40625 2.5,0.40625 4.26563,1.0625 1.78125,0.64062 2.9375,1.42187 1.15625,0.76563 0.57812,1.54688 l -0.95312,-11.14063 q 0,-0.4375 0.0156,-0.96875 0.0312,-0.53125 0.25,-1.10937 0.23438,-0.57813 0.78125,-1.01563 0.5625,-0.45312 1.5,-0.45312 0.875,0 1.45313,0.40625 0.57812,0.39062 0.82812,0.95312 0.25,0.54688 0.28125,1.07813 0.0469,0.53125 0.0469,1.04687 v 30.96875 q 0,1.59375 -0.8125,2.3125 -0.79688,0.70313 -1.73438,0.70313 -1.01562,0 -1.8125,-0.65625 -0.79687,-0.67188 -0.79687,-2.29688 l 1.32812,-4.34375 q 0.85938,1.98438 -0.20312,3.17188 -1.04688,1.1875 -2.40625,1.96875 -1.35938,0.76562 -2.90625,1.26562 -1.54688,0.48438 -3.07813,0.75 -1.53125,0.26563 -2.95312,0.35938 -1.40625,0.0937 -2.51563,0.0937 z m -0.0156,-4.5 q 1.79687,-0.0312 3.90625,-0.28125 2.125,-0.25 3.98437,-0.875 1.85938,-0.64063 3.15625,-1.65625 1.3125,-1.01563 1.70313,-2.39063 v -10.42187 q -0.125,-0.0937 -1.14063,-0.65625 -1,-0.57813 -2.5625,-1.07813 -1.5625,-0.51562 -3.78125,-0.84375 -2.21875,-0.32812 -5.25,-0.32812 -2.8125,0 -4.70312,0.5625 -1.89063,0.54687 -3.04688,1.64062 -1.14062,1.09375 -1.70312,2.89063 -0.5625,1.78125 -0.5625,4.42187 0,2.6875 0.76562,4.39063 0.76563,1.70312 2.04688,2.70312 1.29687,1 3.15625,1.46875 1.85937,0.45313 4.03125,0.45313 z m 51.28125,-4.10938 5.39062,-16.15625 q 0.39063,-1.07812 1.09375,-1.60937 0.71875,-0.53125 1.5625,-0.53125 1.04688,0 1.82813,0.78125 0.78125,0.78125 0.78125,1.98437 0,0.82813 -0.25,1.25 l -7.32813,20.1875 q -0.4375,1.10938 -1.23437,1.82813 -0.78125,0.71875 -1.82813,0.71875 -1.125,0 -1.84375,-0.6875 -0.71875,-0.6875 -1.125,-1.89063 l -5.59375,-15.95312 -5.59375,15.96875 q -0.46875,1.23437 -1.21875,1.90625 -0.75,0.65625 -1.75,0.65625 -2.15625,0 -3.0625,-2.5625 l -7.32812,-20.17188 q -0.25,-0.42187 -0.25,-1.25 0,-1.20312 0.78125,-1.98437 0.78125,-0.78125 1.82812,-0.78125 0.84375,0 1.54688,0.53125 0.71875,0.53125 1.10937,1.60937 l 5.39063,16.15625 5.34375,-15.70312 q 0.875,-2.59375 3.17187,-2.59375 1.04688,0 1.92188,0.6875 0.89062,0.6875 1.3125,1.90625 z m 31.54687,8.60938 q -4.5,0 -7.70312,-0.92188 -3.20313,-0.9375 -5.28125,-2.73437 -2.0625,-1.8125 -2.96875,-4.35938 -0.90625,-2.54687 -0.90625,-5.65625 0,-3.5625 1.03125,-6.20312 1.03125,-2.64063 3.20312,-4.375 2.1875,-1.73438 5.32813,-2.5 3.14062,-0.78125 7.29687,-0.78125 4.15625,0 7.29688,0.78125 3.14062,0.76562 5.3125,2.5 2.1875,1.73437 3.21875,4.375 1.03125,2.64062 1.03125,6.20312 0,3.10938 -0.90625,5.65625 -0.90625,2.54688 -2.98438,4.35938 -2.0625,1.79687 -5.26562,2.73437 -3.20313,0.92188 -7.70313,0.92188 z m 0,-4.5 q 2.70313,0 4.60938,-0.39063 1.90625,-0.39062 3.17187,-1.03125 1.26563,-0.65625 2,-1.48437 0.75,-0.84375 1.17188,-1.82813 0.4375,-0.98437 0.59375,-2.10937 0.15625,-1.14063 0.15625,-2.32813 0,-2.67187 -0.65625,-4.40625 -0.64063,-1.75 -1.96875,-2.82812 -1.32813,-1.07813 -3.57813,-1.59375 -2.25,-0.53125 -5.5,-0.53125 -3.28125,0 -5.51562,0.53125 -2.23438,0.51562 -3.5625,1.59375 -1.32813,1.07812 -1.98438,2.82812 -0.64062,1.73438 -0.64062,4.40625 0,1.1875 0.15625,2.32813 0.15625,1.125 0.57812,2.10937 0.4375,0.98438 1.17188,1.82813 0.75,0.82812 2.01562,1.48437 1.26563,0.64063 3.17188,1.03125 1.90625,0.39063 4.60937,0.39063 z m 38.75,4.5 q -4.5,0 -7.70312,-0.92188 -3.20313,-0.9375 -5.28125,-2.73437 -2.0625,-1.8125 -2.96875,-4.35938 -0.90625,-2.54687 -0.90625,-5.65625 0,-3.5625 1.03125,-6.20312 1.03125,-2.64063 3.20312,-4.375 2.1875,-1.73438 5.32813,-2.5 3.14062,-0.78125 7.29687,-0.78125 4.15625,0 7.29688,0.78125 3.14062,0.76562 5.3125,2.5 2.1875,1.73437 3.21875,4.375 1.03125,2.64062 1.03125,6.20312 0,3.10938 -0.90625,5.65625 -0.90625,2.54688 -2.98438,4.35938 -2.0625,1.79687 -5.26562,2.73437 -3.20313,0.92188 -7.70313,0.92188 z m 0,-4.5 q 2.70313,0 4.60938,-0.39063 1.90625,-0.39062 3.17187,-1.03125 1.26563,-0.65625 2,-1.48437 0.75,-0.84375 1.17188,-1.82813 0.4375,-0.98437 0.59375,-2.10937 0.15625,-1.14063 0.15625,-2.32813 0,-2.67187 -0.65625,-4.40625 -0.64063,-1.75 -1.96875,-2.82812 -1.32813,-1.07813 -3.57813,-1.59375 -2.25,-0.53125 -5.5,-0.53125 -3.28125,0 -5.51562,0.53125 -2.23438,0.51562 -3.5625,1.59375 -1.32813,1.07812 -1.98438,2.82812 -0.64062,1.73438 -0.64062,4.40625 0,1.1875 0.15625,2.32813 0.15625,1.125 0.57812,2.10937 0.4375,0.98438 1.17188,1.82813 0.75,0.82812 2.01562,1.48437 1.26563,0.64063 3.17188,1.03125 1.90625,0.39063 4.60937,0.39063 z m 37.0625,4.5 q -2.96875,0 -5.6875,-0.625 -2.71875,-0.625 -4.85937,-2.20313 -2.14063,-1.59375 -3.39063,-4.21875 -1.23437,-2.64062 -1.23437,-6.46875 0,-3.75 1.01562,-6.4375 1.03125,-2.70312 3.04688,-4.40625 2.01562,-1.70312 4.8125,-2.4375 2.8125,-0.73437 6.29687,-0.73437 3.42188,0 5.90625,0.40625 2.5,0.40625 4.26563,1.0625 1.78125,0.64062 2.9375,1.42187 1.15625,0.76563 0.57812,1.54688 l -0.95312,-11.14063 q 0,-0.4375 0.0156,-0.96875 0.0312,-0.53125 0.25,-1.10937 0.23438,-0.57813 0.78125,-1.01563 0.5625,-0.45312 1.5,-0.45312 0.875,0 1.45313,0.40625 0.57812,0.39062 0.82812,0.95312 0.25,0.54688 0.28125,1.07813 0.0469,0.53125 0.0469,1.04687 v 30.96875 q 0,1.59375 -0.8125,2.3125 -0.79688,0.70313 -1.73438,0.70313 -1.01562,0 -1.8125,-0.65625 -0.79687,-0.67188 -0.79687,-2.29688 l 1.32812,-4.34375 q 0.85938,1.98438 -0.20312,3.17188 -1.04688,1.1875 -2.40625,1.96875 -1.35938,0.76562 -2.90625,1.26562 -1.54688,0.48438 -3.07813,0.75 -1.53125,0.26563 -2.95312,0.35938 -1.40625,0.0937 -2.51563,0.0937 z m -0.0156,-4.5 q 1.79687,-0.0312 3.90625,-0.28125 2.125,-0.25 3.98437,-0.875 1.85938,-0.64063 3.15625,-1.65625 1.3125,-1.01563 1.70313,-2.39063 v -10.42187 q -0.125,-0.0937 -1.14063,-0.65625 -1,-0.57813 -2.5625,-1.07813 -1.5625,-0.51562 -3.78125,-0.84375 -2.21875,-0.32812 -5.25,-0.32812 -2.8125,0 -4.70312,0.5625 -1.89063,0.54687 -3.04688,1.64062 -1.14062,1.09375 -1.70312,2.89063 -0.5625,1.78125 -0.5625,4.42187 0,2.6875 0.76562,4.39063 0.76563,1.70312 2.04688,2.70312 1.29687,1 3.15625,1.46875 1.85937,0.45313 4.03125,0.45313 z" />
  <path
     style="fill:#434343;fill-rule:evenodd"
     inkscape:connector-curvature="0"
     id="path19"
     d="m 66.59707,116.11715 -7.26355,-18.729256 20.23993,-48.95578 7.26352,18.72926 z" />
  <path
     style="fill:#434343;fill-rule:evenodd"
     inkscape:connector-curvature="0"
     id="path21"
     d="M 64.80138,74.211604 57.53783,55.482344 77.77776,6.526569 85.04131,25.255834 Z" />
  <path
     style="fill:#666666;fill-rule:evenodd"
     inkscape:connector-curvature="0"
     id="path23"
     d="m 70.85714,115.24711 c 0.81277,-2.1964 3.10498,-7.51566 3.75067,-7.93289 0.64566,-0.41725 0.10278,3.84117 0.12335,5.4294 0.0205,1.58822 -0.16668,-8.39679 0,4.09991 0.16666,12.4967 0.74979,56.47055 1,70.8803 0.25022,14.40972 0.49082,12.31485 0.50132,15.57809 0.0105,3.26327 0.73883,3.37427 -0.43833,4.00143 -1.17715,0.62717 -5.43744,0.41898 -6.62466,-0.2384 -1.18723,-0.65741 -0.50919,-0.46347 -0.49869,-3.70599 0.0105,-3.24253 0.40549,-4.61566 0.56168,-15.74918 0.15615,-11.13351 0.2922,-39.86572 0.37533,-51.05194 0.0831,-11.18622 -0.0849,-12.51355 0.12335,-16.06534 0.20822,-3.55179 0.31321,-3.04901 1.12598,-5.24539 z" />
  <path
     style="fill:#000000;fill-opacity:0;fill-rule:evenodd"
     inkscape:connector-curvature="0"
     id="path25"
     d="m -123.64155,21.787024 h 172 V 161.78702 h -172 z" />
</svg>
